<?xml version="1.0" standalone="no"?>
<!DOCTYPE svg PUBLIC "-//W3C//DTD SVG 20010904//EN"
 "http://www.w3.org/TR/2001/REC-SVG-20010904/DTD/svg10.dtd">
<svg version="1.0" xmlns="http://www.w3.org/2000/svg"
 width="260.000000pt" height="260.000000pt" viewBox="0 0 260.000000 260.000000"
 preserveAspectRatio="xMidYMid meet">
<metadata>
Created by potrace 1.11, written by Peter Selinger 2001-2013
</metadata>
<g transform="translate(0.000000,260.000000) scale(0.100000,-0.100000)"
fill="#000000" stroke="none">
<path d="M500 2576 c-61 -22 -213 -73 -235 -80 -5 -1 -30 -8 -55 -15 -24 -7
-82 -26 -127 -43 l-83 -30 0 -300 0 -301 20 18 c32 29 62 83 54 96 -4 7 -3 9
4 5 6 -3 13 6 17 24 4 16 11 30 16 30 9 0 2 -22 -41 -120 -16 -36 -32 -90 -35
-120 -4 -30 -11 -68 -17 -83 -9 -23 -8 -30 8 -42 27 -20 33 -19 40 10 3 14 10
25 15 25 12 0 11 -10 -6 -76 -16 -62 -12 -82 13 -62 14 12 14 10 3 -9 -6 -13
-9 -23 -6 -23 3 0 -2 -13 -11 -29 -14 -24 -15 -32 -5 -45 7 -8 10 -19 8 -23
-3 -5 8 -16 24 -25 28 -16 29 -16 21 0 -5 9 -5 114 -2 232 l7 215 52 115 c29
63 58 121 64 128 13 16 162 118 282 193 80 50 124 68 386 153 163 53 306 96
318 96 23 0 41 -27 41 -63 0 -17 7 -27 23 -31 39 -10 56 -7 106 25 39 23 63
31 113 33 35 2 77 10 95 19 43 23 56 22 48 -4 -6 -18 -3 -20 22 -19 47 3 50 0
13 -18 -22 -11 -36 -26 -38 -40 -3 -19 1 -22 35 -22 51 0 81 -22 89 -67 6 -31
3 -39 -16 -55 -27 -22 -60 -24 -60 -3 0 8 1 16 2 18 2 1 -7 16 -18 32 -12 17
-23 39 -25 50 -3 13 -14 21 -32 23 -16 2 -25 8 -21 14 4 6 1 9 -7 6 -8 -3 -14
-19 -14 -39 0 -43 -8 -48 -75 -50 -30 0 -71 -6 -90 -13 l-35 -13 33 -17 c23
-12 32 -23 32 -41 0 -14 -5 -25 -12 -25 -6 0 -9 -2 -6 -5 3 -3 21 3 39 14 19
11 52 23 74 27 22 3 51 12 65 19 46 21 90 0 90 -45 0 -37 -78 -111 -91 -87
-20 35 -104 33 -149 -4 -14 -12 -19 -18 -12 -14 8 4 40 8 71 8 45 1 65 -4 89
-22 18 -12 32 -25 32 -28 0 -21 -64 -97 -107 -129 -29 -21 -51 -39 -50 -40 9
-8 119 21 134 36 16 15 21 16 46 3 42 -21 37 -59 -18 -113 l-45 -44 63 -24
c34 -13 78 -28 97 -34 19 -5 40 -14 46 -19 5 -4 53 -25 105 -45 52 -20 113
-45 136 -55 23 -10 46 -19 51 -19 5 0 15 -6 21 -14 6 -8 24 -16 39 -19 67 -13
172 -67 172 -90 0 -20 -21 -37 -47 -37 -34 0 -28 -13 15 -32 20 -10 78 -40
127 -68 50 -27 106 -57 125 -67 19 -9 38 -19 43 -21 4 -2 7 307 7 687 l0 691
-1017 -1 -1018 -1 -65 -22z m1537 -142 c4 -11 -2 -23 -18 -35 -41 -32 -52 -19
-23 26 19 29 32 32 41 9z m-201 -353 c-10 -10 -26 -21 -38 -24 -23 -7 -19 -1
19 24 36 23 40 23 19 0z m-1715 -78 c-12 -20 -14 -14 -5 12 4 9 9 14 11 11 3
-2 0 -13 -6 -23z"/>
<path d="M1725 2250 c3 -5 8 -10 11 -10 2 0 4 5 4 10 0 6 -5 10 -11 10 -5 0
-7 -4 -4 -10z"/>
<path d="M682 2194 c-12 -8 -22 -20 -22 -25 0 -5 -9 -19 -20 -31 -21 -23 -26
-53 -10 -63 9 -6 14 8 11 28 0 4 3 7 8 7 5 0 12 8 16 19 8 25 67 16 88 -13 5
-7 12 -4 22 8 11 15 15 16 16 5 3 -28 2 -47 -5 -73 -6 -23 -3 -26 19 -26 19 0
25 5 25 23 0 18 2 19 10 7 8 -13 11 -13 27 3 13 12 18 33 18 75 0 52 -2 57
-23 60 -13 2 -29 -2 -37 -8 -11 -9 -19 -8 -37 4 -29 20 -77 20 -106 0z m167
-103 c-2 -6 -12 4 -22 22 l-18 32 21 -21 c13 -12 21 -27 19 -33z"/>
<path d="M597 2128 c7 -50 13 -63 13 -26 0 14 7 31 15 38 18 15 11 30 -15 30
-16 0 -17 -6 -13 -42z"/>
<path d="M610 2047 c0 -13 9 -32 20 -42 45 -40 -28 -75 -89 -41 l-23 13 28 23
c31 24 29 24 -38 3 -13 -4 -31 -6 -42 -4 -10 1 -35 -11 -56 -28 -40 -32 -64
-39 -75 -21 -3 6 -18 10 -32 10 -21 0 -23 -2 -13 -15 6 -8 10 -20 7 -27 -15
-42 62 -86 158 -91 65 -3 67 -2 103 33 20 20 56 49 80 65 23 15 42 32 42 36 0
5 6 9 13 9 6 0 21 7 31 15 15 11 17 18 9 26 -9 9 -16 8 -27 -3 -8 -9 -13 -18
-10 -21 3 -3 -3 -3 -14 0 -12 3 -25 18 -31 35 -7 19 -15 27 -22 22 -7 -4 -9
-3 -5 4 3 6 2 13 -4 17 -6 3 -10 -4 -10 -18z"/>
<path d="M1193 1947 c-45 -23 -96 -53 -114 -67 -90 -70 -140 -113 -149 -130
-18 -33 10 -24 70 23 30 24 102 78 160 122 153 114 152 113 33 52z"/>
<path d="M1481 1872 c-29 -5 -101 -48 -101 -62 0 -6 -3 -9 -7 -8 -16 4 -72
-32 -104 -68 -19 -19 -63 -57 -99 -82 -36 -25 -83 -61 -106 -79 -23 -18 -44
-33 -47 -33 -16 0 -98 -64 -128 -100 -19 -22 -60 -69 -91 -105 -32 -35 -58
-73 -58 -84 0 -21 -27 -41 -46 -34 -5 2 -20 -7 -32 -20 l-22 -23 21 -22 c18
-20 22 -21 35 -7 9 8 25 15 37 15 21 0 21 -1 -6 -25 -32 -30 -32 -31 -9 -33
24 -1 72 18 72 29 0 14 67 10 195 -12 66 -11 126 -22 133 -25 13 -4 -111 -114
-127 -114 -4 0 -16 6 -26 14 -17 13 -27 7 -105 -59 -47 -40 -103 -92 -125
-115 -22 -24 -73 -64 -113 -91 l-74 -49 -31 17 c-22 12 -51 16 -95 14 -86 -3
-152 22 -152 58 0 14 -3 35 -6 47 -4 17 6 28 61 64 l66 43 -53 33 c-29 19 -56
34 -60 34 -5 0 -8 34 -8 75 l0 75 -53 0 c-65 0 -97 20 -97 60 0 33 13 40 55
29 17 -4 62 -10 100 -13 l70 -5 -37 20 c-21 11 -38 25 -38 32 0 8 -3 7 -10 -3
-7 -12 -12 -12 -34 0 -18 9 -23 17 -16 25 7 8 3 15 -14 23 -19 9 -25 8 -30 -4
-4 -11 -11 -12 -23 -5 -18 9 -73 10 -73 1 0 -3 14 -17 32 -33 l33 -27 -52 26
c-29 15 -53 31 -53 36 0 5 5 6 10 3 6 -3 10 -1 10 5 0 8 9 10 26 6 16 -4 23
-3 19 3 -3 6 -20 14 -38 19 -24 6 -32 14 -31 30 0 12 -5 22 -12 22 -11 0 -14
-130 -14 -695 l0 -695 1300 0 1300 0 0 199 0 200 -185 102 c-103 56 -185 107
-185 115 0 18 7 18 44 -5 19 -12 38 -16 50 -12 16 6 17 9 6 16 -8 5 -27 10
-43 12 -16 2 -35 9 -43 17 -12 13 -6 20 47 54 54 36 58 41 39 47 -12 4 -20 9
-17 11 6 6 115 -32 200 -70 43 -20 80 -36 83 -36 2 0 4 44 4 98 l0 99 -39 18
c-22 10 -47 15 -55 12 -9 -3 -18 -1 -22 5 -5 7 -2 8 7 3 8 -4 -2 6 -21 23 -19
17 -64 45 -100 64 -54 28 -156 108 -137 108 3 0 27 -9 53 -20 33 -14 51 -17
58 -10 6 6 6 10 1 10 -6 0 -4 4 3 8 7 5 10 15 7 23 -6 16 -60 49 -80 49 -8 0
-19 9 -26 21 -10 19 -9 20 13 14 12 -4 35 -13 49 -21 20 -10 34 -11 62 -2 20
6 34 15 31 20 -6 10 -5 10 63 13 29 1 52 -1 51 -4 -2 -19 4 -24 13 -11 9 13
10 13 6 -1 -3 -9 -1 -22 3 -30 6 -8 3 -20 -6 -30 -13 -15 -13 -17 1 -23 12 -4
14 -10 6 -23 -7 -14 -3 -22 22 -40 17 -13 32 -23 34 -23 2 0 3 40 3 89 l0 89
-42 17 c-24 9 -51 24 -60 32 -10 9 -18 12 -18 7 0 -5 -4 -4 -8 2 -8 14 -175
103 -200 107 -9 2 -37 14 -62 27 -25 12 -56 26 -70 31 -25 7 -25 7 4 8 16 1
47 -12 72 -29 51 -34 57 -24 14 22 -16 17 -30 28 -30 23 0 -4 -12 1 -27 10
-24 16 -27 16 -38 1 -17 -23 -28 -20 -70 19 -20 20 -52 42 -71 50 -38 16 -66
39 -59 49 3 3 0 2 -6 -3 -8 -6 -20 -1 -38 15 -33 31 -67 40 -89 23 -15 -12
-16 -12 -5 2 10 13 7 18 -19 34 -17 10 -28 13 -25 8 4 -6 0 -17 -9 -24 -15
-12 -14 -15 12 -27 24 -11 25 -12 4 -6 -14 3 -36 6 -50 6 -23 0 -23 1 -7 13
15 11 17 17 7 35 -10 20 -10 21 8 16 11 -4 23 -2 27 4 3 6 11 7 17 4 7 -4 8
-2 4 5 -6 9 -11 9 -21 1 -14 -12 -34 -6 -123 36 -29 14 -58 22 -65 18 -6 -5
-5 1 3 11 14 17 14 18 -8 6 -26 -14 -45 -5 -22 9 13 8 12 10 -2 10 -9 0 -20 5
-24 12 -5 7 -2 8 7 3 8 -4 -4 8 -26 27 -52 47 -38 62 17 18 23 -19 38 -28 34
-22 -5 9 0 9 20 2 37 -14 54 -6 54 25 0 46 -50 68 -129 57z m-22 -116 c10 -12
8 -13 -8 -9 -22 6 -26 -3 -12 -26 5 -7 14 -10 20 -7 6 4 11 4 10 -1 -4 -20 2
-33 15 -33 8 0 16 -3 18 -7 5 -13 88 -55 88 -45 0 5 -11 14 -24 20 -34 15 -31
52 4 47 14 -1 31 -3 38 -4 6 0 12 -5 12 -10 0 -4 -15 -7 -32 -5 l-33 3 37 -30
c21 -17 36 -35 33 -39 -3 -5 4 -7 15 -5 11 2 20 0 20 -5 0 -4 41 -41 90 -80
50 -40 87 -77 83 -82 -3 -7 -1 -8 6 -4 7 4 31 -9 59 -32 26 -21 109 -85 186
-141 142 -105 161 -121 186 -156 11 -16 11 -17 0 -8 -11 10 -17 10 -29 0 -14
-10 -14 -10 -4 4 11 13 0 24 -71 76 -77 56 -85 60 -100 45 -9 -10 -16 -12 -16
-5 0 7 5 15 10 18 8 5 7 11 -1 21 -6 7 -15 11 -20 8 -5 -3 -9 -1 -9 4 0 15
-171 142 -199 148 -36 7 -56 20 -54 33 2 6 -3 8 -10 6 -24 -8 -270 160 -267
182 1 4 -4 9 -11 12 -8 2 -10 -5 -7 -23 5 -24 -2 -32 -56 -68 -103 -69 -277
-201 -354 -267 l-73 -63 -54 31 c-30 17 -57 31 -59 31 -2 0 -7 -12 -11 -27 -9
-36 -21 -15 -24 43 -3 55 22 102 44 84 24 -20 83 20 200 132 115 110 164 148
220 174 28 12 66 34 85 48 41 30 44 30 59 12z m76 -63 c7 -20 -13 -15 -35 7
-11 11 -20 22 -20 24 0 9 50 -20 55 -31z m133 -35 c16 -20 -10 -39 -31 -23
-18 13 -24 30 -7 20 6 -3 10 -1 10 4 0 15 15 14 28 -1z m-136 -110 c-6 -6 -16
-7 -22 -3 -9 6 -9 9 1 16 17 10 34 0 21 -13z m247 6 c10 -9 -35 -3 -49 6 -11
8 -7 9 15 4 17 -4 32 -8 34 -10z m75 2 c-3 -9 -12 -12 -22 -9 -15 6 -9 11 25
22 1 1 0 -5 -3 -13z m-44 -37 c17 -13 18 -17 5 -10 -33 17 -51 31 -40 31 6 0
21 -10 35 -21z m-172 -48 c13 -7 22 -15 19 -17 -2 -3 -21 5 -41 17 -20 11 -36
16 -36 11 0 -6 9 -14 20 -17 11 -4 32 -17 45 -29 l25 -23 -26 -12 c-14 -6 -31
-9 -37 -5 -7 3 -1 -4 13 -15 14 -11 44 -28 68 -37 31 -13 41 -21 37 -32 -4
-12 -1 -11 15 3 14 13 20 14 20 5 0 -7 3 -11 6 -7 8 7 34 -17 34 -32 0 -5 12
-11 28 -13 18 -2 26 -8 24 -18 -2 -8 0 -12 3 -8 10 10 47 -11 40 -21 -2 -5 3
-8 13 -7 9 0 16 -5 14 -12 -1 -8 1 -11 6 -8 13 8 53 -24 46 -36 -4 -6 -2 -8 3
-5 6 4 22 -2 34 -14 13 -11 17 -17 9 -13 -8 4 -11 3 -7 -1 4 -5 14 -10 22 -11
8 -1 43 -24 77 -51 35 -27 79 -59 99 -71 20 -12 36 -28 36 -36 0 -8 -4 -13 -8
-10 -4 2 -11 -2 -16 -10 -7 -12 -42 11 -165 107 -178 139 -309 235 -350 257
-16 9 -25 20 -21 25 4 4 2 5 -5 1 -17 -10 -54 3 -49 18 3 7 -26 36 -64 65 -70
54 -78 64 -57 77 7 5 9 2 5 -9 -6 -16 35 -52 47 -40 13 13 5 23 -16 23 -18 0
-20 2 -8 10 12 8 12 11 -3 28 -27 30 -8 34 37 8 23 -13 52 -29 64 -35z m-153
29 c3 -5 -1 -10 -9 -10 -8 0 -18 5 -21 10 -3 6 1 10 9 10 8 0 18 -4 21 -10z
m452 -37 c-1 -1 -23 1 -47 5 l-45 7 40 5 c22 3 43 1 47 -5 4 -5 6 -10 5 -12z
m-210 -55 c-30 -23 -45 0 -15 25 17 14 23 15 29 5 6 -8 1 -19 -14 -30z m-53
-23 c3 -9 0 -15 -9 -15 -8 0 -15 7 -15 15 0 8 4 15 9 15 5 0 11 -7 15 -15z
m91 -15 c-3 -5 -10 -10 -16 -10 -5 0 -9 5 -9 10 0 6 7 10 16 10 8 0 12 -4 9
-10z m72 4 c-3 -3 -12 -4 -19 -1 -8 3 -5 6 6 6 11 1 17 -2 13 -5z m210 -21 c2
-6 -7 -8 -23 -5 -19 3 -22 7 -12 13 15 10 30 7 35 -8z m-219 -22 c3 -10 0 -10
-19 -1 -34 18 -36 21 -9 17 13 -2 26 -9 28 -16z m277 -13 c26 -12 34 -28 13
-28 -17 1 -67 39 -51 40 7 0 24 -5 38 -12z m105 -41 c0 -8 -15 -12 -45 -12
-39 0 -43 2 -28 13 22 16 73 16 73 -1z m-67 -173 c-3 -8 -1 -14 4 -14 5 0 24
-14 43 -30 l35 -30 -62 32 c-45 24 -57 35 -47 41 8 5 12 12 9 18 -3 5 1 6 9 3
8 -3 12 -12 9 -20z m337 -240 c0 -8 5 -14 11 -14 5 0 8 -4 4 -9 -3 -6 -21 -1
-42 11 -33 20 -34 22 -18 35 20 14 45 2 45 -23z m-171 -40 c14 -12 -19 -1 -35
12 -18 14 -18 14 6 3 14 -6 27 -13 29 -15z"/>
<path d="M1396 1713 c-3 -3 -6 -11 -6 -16 0 -6 3 -8 6 -4 4 3 19 0 35 -9 16
-8 29 -11 29 -6 0 11 -56 43 -64 35z"/>
<path d="M1550 1617 c29 -28 122 -87 137 -87 24 0 -3 27 -49 51 -23 12 -36 24
-32 31 4 6 3 8 -4 4 -6 -3 -23 -1 -39 5 -24 9 -26 8 -13 -4z"/>
<path d="M1565 1420 c3 -5 8 -10 11 -10 2 0 4 5 4 10 0 6 -5 10 -11 10 -5 0
-7 -4 -4 -10z"/>
<path d="M1590 1420 c0 -5 4 -10 9 -10 6 0 13 5 16 10 3 6 -1 10 -9 10 -9 0
-16 -4 -16 -10z"/>
<path d="M2190 986 c0 -3 9 -10 20 -16 11 -6 20 -8 20 -6 0 3 -9 10 -20 16
-11 6 -20 8 -20 6z"/>
<path d="M1580 1735 c0 -9 6 -12 15 -9 8 4 15 7 15 9 0 2 -7 5 -15 9 -9 3 -15
0 -15 -9z"/>
<path d="M797 1646 c-37 -31 -38 -33 -35 -91 l3 -60 37 35 c33 31 38 41 40 87
1 29 0 55 -3 57 -2 2 -21 -10 -42 -28z"/>
<path d="M1866 1611 c-3 -5 1 -11 9 -14 9 -4 12 -1 8 9 -6 16 -10 17 -17 5z"/>
<path d="M933 1573 c-12 -8 -39 -30 -58 -49 -20 -19 -42 -31 -48 -27 -7 3 -9
2 -4 -2 4 -5 -18 -35 -50 -67 -39 -40 -52 -58 -40 -58 30 0 101 51 212 152 35
33 38 39 25 52 -13 12 -18 12 -37 -1z"/>
<path d="M1920 1579 c0 -5 5 -7 10 -4 6 3 10 8 10 11 0 2 -4 4 -10 4 -5 0 -10
-5 -10 -11z"/>
<path d="M869 1533 c-13 -16 -12 -17 4 -4 9 7 17 15 17 17 0 8 -8 3 -21 -13z"/>
<path d="M785 1069 c-33 -30 -35 -34 -35 -98 l0 -66 28 30 c49 53 62 78 62
122 0 24 -4 43 -10 43 -5 0 -25 -14 -45 -31z"/>
<path d="M2377 1009 c7 -7 15 -10 18 -7 3 3 -2 9 -12 12 -14 6 -15 5 -6 -5z"/>
<path d="M2360 996 c0 -3 9 -10 20 -16 11 -6 20 -8 20 -6 0 3 -9 10 -20 16
-11 6 -20 8 -20 6z"/>
<path d="M2522 959 c-7 -11 -12 -22 -10 -22 2 -1 22 -12 46 -24 l42 -21 0 31
c0 36 -36 69 -50 47 -5 -9 -9 -9 -11 -1 -2 6 -10 2 -17 -10z"/>
<path d="M2475 636 c2 -17 -3 -26 -17 -29 -12 -4 -18 -12 -16 -24 2 -15 -3
-17 -32 -14 -41 4 -50 8 -50 24 0 8 3 8 9 -2 6 -9 11 -10 15 -2 4 6 2 11 -4
11 -6 0 -8 4 -5 10 3 5 -7 2 -24 -7 l-29 -17 30 -19 c17 -10 37 -16 45 -13 8
3 12 2 9 -2 -3 -5 14 -17 37 -27 23 -10 66 -33 95 -52 29 -18 55 -33 57 -33 3
0 5 38 5 84 l0 83 -59 27 c-32 14 -61 26 -63 26 -3 0 -4 -11 -3 -24z"/>
</g>
</svg>
